HIERARCHY
ROOT Hips
{
    OFFSET   0.000000   0.000000   0.000000
    CHANNELS 6 Xposition Yposition Zposition Zrotation Xrotation Yrotation
    JOINT Chest
    {
        OFFSET   0.000000   8.007230   0.000000
        CHANNELS 3 Zrotation Xrotation Yrotation
        JOINT Chest2
        {
            OFFSET   0.000000  22.077100   0.000000
            CHANNELS 3 Zrotation Xrotation Yrotation
            JOINT Neck
            {
                OFFSET   0.000000  23.255100   0.000000
                CHANNELS 3 Zrotation Xrotation Yrotation
                JOINT Head
                {
                    OFFSET   0.000000  14.370100   1.956600
                    CHANNELS 3 Zrotation Xrotation Yrotation
                    End Site
                    {
                        OFFSET   0.000000  19.566000   0.000000
                    }
                }
            }
            JOINT LeftCollar
            {
                OFFSET   3.911900  19.017000  -0.467063
                CHANNELS 3 Zrotation Xrotation Yrotation
                JOINT LeftShoulder
                {
                    OFFSET  10.383700   0.000000   0.000000
                    CHANNELS 3 Zrotation Xrotation Yrotation
                    JOINT LeftElbow
                    {
                        OFFSET  26.662100   0.001193   0.000980
                        CHANNELS 3 Zrotation Xrotation Yrotation
                        JOINT LeftWrist
                        {
                            OFFSET  28.869000  -0.000059  -0.000082
                            CHANNELS 3 Zrotation Xrotation Yrotation
                            JOINT LeftFinger0
                            {
                                OFFSET   2.044650  -2.323450   3.252850
                                CHANNELS 3 Zrotation Xrotation Yrotation
                                JOINT LeftFinger01
                                {
                                    OFFSET   3.088130   0.000000   0.000000
                                    CHANNELS 3 Zrotation Xrotation Yrotation
                                    JOINT LeftFinger02
                                    {
                                        OFFSET   2.639460   0.000000   0.000000
                                        CHANNELS 3 Zrotation Xrotation Yrotation
                                        End Site
                                        {
                                            OFFSET   2.582190   0.000000   0.000000
                                        }
                                    }
                                }
                            }
                            JOINT LeftFinger1
                            {
                                OFFSET   8.364480   0.000000   3.252850
                                CHANNELS 3 Zrotation Xrotation Yrotation
                                JOINT LeftFinger11
                                {
                                    OFFSET   4.646930   0.000000   0.000000
                                    CHANNELS 3 Zrotation Xrotation Yrotation
                                    JOINT LeftFinger12
                                    {
                                        OFFSET   2.323470   0.000000   0.000000
                                        CHANNELS 3 Zrotation Xrotation Yrotation
                                        End Site
                                        {
                                            OFFSET   2.273050   0.000000   0.000000
                                        }
                                    }
                                }
                            }
                            JOINT LeftFinger2
                            {
                                OFFSET   8.364490   0.000016   1.078090
                                CHANNELS 3 Zrotation Xrotation Yrotation
                                JOINT LeftFinger21
                                {
                                    OFFSET   5.111610   0.000000   0.000000
                                    CHANNELS 3 Zrotation Xrotation Yrotation
                                    JOINT LeftFinger22
                                    {
                                        OFFSET   2.788150   0.000016   0.000000
                                        CHANNELS 3 Zrotation Xrotation Yrotation
                                        End Site
                                        {
                                            OFFSET   2.727660   0.000000   0.000000
                                        }
                                    }
                                }
                            }
                            JOINT LeftFinger3
                            {
                                OFFSET   7.899780   0.000015  -1.078090
                                CHANNELS 3 Zrotation Xrotation Yrotation
                                JOINT LeftFinger31
                                {
                                    OFFSET   4.646930   0.000000   0.000000
                                    CHANNELS 3 Zrotation Xrotation Yrotation
                                    JOINT LeftFinger32
                                    {
                                        OFFSET   2.323470   0.000000   0.000000
                                        CHANNELS 3 Zrotation Xrotation Yrotation
                                        End Site
                                        {
                                            OFFSET   2.273050   0.000000   0.000000
                                        }
                                    }
                                }
                            }
                            JOINT LeftFinger4
                            {
                                OFFSET   7.435090   0.000000  -3.252850
                                CHANNELS 3 Zrotation Xrotation Yrotation
                                JOINT LeftFinger41
                                {
                                    OFFSET   3.717550   0.000000   0.000000
                                    CHANNELS 3 Zrotation Xrotation Yrotation
                                    JOINT LeftFinger42
                                    {
                                        OFFSET   1.858770   0.000000   0.000000
                                        CHANNELS 3 Zrotation Xrotation Yrotation
                                        End Site
                                        {
                                            OFFSET   1.818440   0.000000   0.000000
                                        }
                                    }
                                }
                            }
                        }
                    }
                }
            }
            JOINT RightCollar
            {
                OFFSET  -3.911910  19.017000  -0.467062
                CHANNELS 3 Zrotation Xrotation Yrotation
                JOINT RightShoulder
                {
                    OFFSET -10.383700   0.000014   0.000000
                    CHANNELS 3 Zrotation Xrotation Yrotation
                    JOINT RightElbow
                    {
                        OFFSET -26.662100   0.001225   0.001091
                        CHANNELS 3 Zrotation Xrotation Yrotation
                        JOINT RightWrist
                        {
                            OFFSET -28.869000  -0.000020  -0.000085
                            CHANNELS 3 Zrotation Xrotation Yrotation
                            JOINT RightFinger0
                            {
                                OFFSET  -2.044650  -2.323490   3.252850
                                CHANNELS 3 Zrotation Xrotation Yrotation
                                JOINT RightFinger01
                                {
                                    OFFSET  -3.088130   0.000000   0.000000
                                    CHANNELS 3 Zrotation Xrotation Yrotation
                                    JOINT RightFinger02
                                    {
                                        OFFSET  -2.639460   0.000000   0.000000
                                        CHANNELS 3 Zrotation Xrotation Yrotation
                                        End Site
                                        {
                                            OFFSET  -2.582190   0.000000   0.000000
                                        }
                                    }
                                }
                            }
                            JOINT RightFinger1
                            {
                                OFFSET  -8.364480   0.000000   3.252850
                                CHANNELS 3 Zrotation Xrotation Yrotation
                                JOINT RightFinger11
                                {
                                    OFFSET  -4.646930   0.000000   0.000000
                                    CHANNELS 3 Zrotation Xrotation Yrotation
                                    JOINT RightFinger12
                                    {
                                        OFFSET  -2.323470   0.000000   0.000000
                                        CHANNELS 3 Zrotation Xrotation Yrotation
                                        End Site
                                        {
                                            OFFSET  -2.273050   0.000000   0.000000
                                        }
                                    }
                                }
                            }
                            JOINT RightFinger2
                            {
                                OFFSET  -8.364480   0.000000   1.078090
                                CHANNELS 3 Zrotation Xrotation Yrotation
                                JOINT RightFinger21
                                {
                                    OFFSET  -5.111620   0.000000   0.000000
                                    CHANNELS 3 Zrotation Xrotation Yrotation
                                    JOINT RightFinger22
                                    {
                                        OFFSET  -2.788160   0.000000   0.000000
                                        CHANNELS 3 Zrotation Xrotation Yrotation
                                        End Site
                                        {
                                            OFFSET  -2.727660   0.000000   0.000000
                                        }
                                    }
                                }
                            }
                            JOINT RightFinger3
                            {
                                OFFSET  -7.899780   0.000000  -1.078090
                                CHANNELS 3 Zrotation Xrotation Yrotation
                                JOINT RightFinger31
                                {
                                    OFFSET  -4.646930   0.000000   0.000000
                                    CHANNELS 3 Zrotation Xrotation Yrotation
                                    JOINT RightFinger32
                                    {
                                        OFFSET  -2.323470   0.000000   0.000000
                                        CHANNELS 3 Zrotation Xrotation Yrotation
                                        End Site
                                        {
                                            OFFSET  -2.273050   0.000000   0.000000
                                        }
                                    }
                                }
                            }
                            JOINT RightFinger4
                            {
                                OFFSET  -7.435090   0.000000  -3.252850
                                CHANNELS 3 Zrotation Xrotation Yrotation
                                JOINT RightFinger41
                                {
                                    OFFSET  -3.717550   0.000000   0.000000
                                    CHANNELS 3 Zrotation Xrotation Yrotation
                                    JOINT RightFinger42
                                    {
                                        OFFSET  -1.858760   0.000000   0.000000
                                        CHANNELS 3 Zrotation Xrotation Yrotation
                                        End Site
                                        {
                                            OFFSET  -1.818440   0.000000   0.000000
                                        }
                                    }
                                }
                            }
                        }
                    }
                }
            }
        }
    }
    JOINT LeftHip
    {
        OFFSET   9.783030   0.000000   0.000000
        CHANNELS 3 Zrotation Xrotation Yrotation
        JOINT LeftKnee
        {
            OFFSET   0.000063 -41.789100   0.000608
            CHANNELS 3 Zrotation Xrotation Yrotation
            JOINT LeftAnkle
            {
                OFFSET   0.000048 -41.133200  -0.000184
                CHANNELS 3 Zrotation Xrotation Yrotation
                JOINT LeftToe
                {
                    OFFSET   0.000000  -6.358960  14.674500
                    CHANNELS 3 Zrotation Xrotation Yrotation
                    End Site
                    {
                        OFFSET   0.000000   0.000000   3.913200
                    }
                }
            }
        }
    }
    JOINT RightHip
    {
        OFFSET  -9.783030   0.000000   0.000000
        CHANNELS 3 Zrotation Xrotation Yrotation
        JOINT RightKnee
        {
            OFFSET   0.000071 -41.789100   0.001239
            CHANNELS 3 Zrotation Xrotation Yrotation
            JOINT RightAnkle
            {
                OFFSET   0.000037 -41.133200  -0.000166
                CHANNELS 3 Zrotation Xrotation Yrotation
                JOINT RightToe
                {
                    OFFSET   0.000000  -6.358960  14.674500
                    CHANNELS 3 Zrotation Xrotation Yrotation
                    End Site
                    {
                        OFFSET   0.000000   0.000000   3.913200
                    }
                }
            }
        }
    }
}
MOTION
Frames: 4
Frame Time:   0.016667
  0.368964  89.607700  -1.467560  -2.223250  -6.575870  -3.870960   0.323436   4.269890   0.579053   0.605982   8.542780   1.138610   1.834050  -0.284766   0.006479   3.015230  -0.585604   0.840881  -5.057450  -0.280996   0.690872 -74.328400  18.776200  -2.112440  -1.155240  -1.512650 -18.746800  18.224800 -14.287900   7.361050  39.093200  35.893900 -69.388400 -32.916400   0.001760   0.001221 -11.459000   0.002844   0.005158 -31.595800   6.034450  -9.700630 -26.270300  -0.003145   0.012477 -18.389200  -0.002004  -0.000916 -28.534800  -1.007490   1.865720 -36.750400  -0.001230   0.000470 -24.475800  -0.000569  -0.000533 -28.280100  -0.999239   1.870280 -34.151700  -0.003037  -0.000000 -22.745100   0.000106  -0.001991 -30.919900  -1.084730   1.821860 -46.405600  -0.002434   0.000554 -30.906100   0.000100  -0.002005  11.179800   1.074780   7.116950  68.951800  13.041200  -8.213010  -1.633560  -5.591060  15.330900 -13.436400 -11.770300   2.087830 -39.724800  42.447800  76.084700  38.005000   0.004221  -0.003176  14.021000   0.005108   0.004554  43.402800  11.491600  11.896800  36.494100   0.000714   0.005591  26.467900   0.002616   0.003975  29.720400   2.757610   4.817340  44.754700  -0.001609   0.001579  29.806600   0.001238   0.004358  28.122000   1.707760   3.191280  33.195600   0.003607  -0.000539  22.108300   0.003170  -0.005967  34.190600   0.423353   0.622586  51.289400   0.001778  -0.013009  34.158700   0.005486  -0.006671   1.472540   7.890730   2.488300   1.313360   0.033431   4.385800  -1.345870  -2.997570   1.179030  -0.000000   0.000000   0.000000   4.098180   4.581330  -2.699430  -2.773580   5.534680  -2.497010  -0.534301  -4.795020  -0.881175  -0.000000   0.000000   0.000000
  0.378237  89.607700  -1.458520  -2.231850  -6.595830  -3.890000   0.323329   4.276610   0.580463   0.605501   8.556240   1.141450   1.834060  -0.285022   0.006489   3.014960  -0.582621   0.817018  -5.057290  -0.295599   0.686436 -74.339700  18.797500  -2.114780  -1.148750  -1.509790 -18.722000  18.254000 -14.284000   7.361420  39.077700  35.877900 -69.373400 -32.922100   0.001760   0.001213 -11.459000   0.002854   0.005154 -31.602600   6.036230  -9.700660 -26.276100  -0.003143   0.012477 -18.393300  -0.002008  -0.000919 -28.535800  -1.007750   1.864180 -36.762000  -0.001232   0.000472 -24.483500  -0.000574  -0.000534 -28.280200  -0.999497   1.868720 -34.161000  -0.003038  -0.000000 -22.751300   0.000106  -0.001991 -30.925100  -1.085000   1.820270 -46.413300  -0.002437   0.000554 -30.911200   0.000099  -0.002006  11.172100   1.051190   7.117390  68.963900  13.082200  -8.181660  -1.635460  -5.590200  15.303000 -13.435900 -11.777800   2.106090 -39.708100  42.484600  76.071200  38.071300   0.004189  -0.003184  14.071300   0.005082   0.004565  43.509200  11.491800  11.853700  36.577600   0.000697   0.005558  26.547400   0.002610   0.003956  29.719600   2.755350   4.813290  44.753100  -0.001619   0.001541  29.805500   0.001245   0.004386  28.121300   1.708110   3.192430  33.186900   0.003577  -0.000441  22.102500   0.003163  -0.005948  34.120300   0.438978   0.647258  51.184200   0.001736  -0.013001  34.088700   0.005485  -0.006649   1.470380   7.909260   2.495320   1.312390   0.048000   4.398900  -1.346740  -3.007880   1.178150  -0.000000   0.000000   0.000000   4.099820   4.601570  -2.705060  -2.780360   5.542390  -2.497490  -0.530985  -4.802910  -0.860732  -0.000000   0.000000   0.000000
  0.393485  89.607700  -1.444030  -2.245580  -6.634150  -3.918610   0.323388   4.293180   0.583689   0.605327   8.589410   1.147870   1.834060  -0.286811   0.006511   3.014560  -0.579641   0.776473  -5.056940  -0.329766   0.675100 -74.357000  18.849100  -2.125650  -1.133840  -1.507100 -18.678600  18.296100 -14.280200   7.361790  39.063200  35.859600 -69.360100 -32.927800   0.001759   0.001202 -11.459100   0.002864   0.005149 -31.615900   6.040550  -9.700740 -26.287400  -0.003142   0.012478 -18.401200  -0.002013  -0.000925 -28.537200  -1.008020   1.859790 -36.786000  -0.001239   0.000474 -24.499500  -0.000586  -0.000535 -28.280200  -0.999758   1.864310 -34.182900  -0.003041   0.000000 -22.765800   0.000106  -0.001992 -30.936500  -1.085260   1.815800 -46.430500  -0.002446   0.000556 -30.922700   0.000097  -0.002006  11.166200   0.980938   7.117740  68.986400  13.158800  -8.128850  -1.635030  -5.580420  15.248900 -13.455600 -11.792700   2.124400 -39.661000  42.521500  76.057600  38.208700   0.004125  -0.003193  14.179600   0.005018   0.004587  43.717500  11.491600  11.769400  36.741100   0.000659   0.005487  26.703200   0.002598   0.003914  29.712900   2.744380   4.795770  44.741800  -0.001646   0.001461  29.798000   0.001261   0.004455  28.116600   1.708460   3.193570  33.135200   0.003517  -0.000342  22.068000   0.003145  -0.005900  33.968800   0.472347   0.700589  50.957500   0.001645  -0.012981  33.937800   0.005483  -0.006597   1.466830   7.947240   2.506290   1.310750   0.071120   4.420770  -1.347610  -3.026200   1.174040  -0.000000   0.000000   0.000000   4.102380   4.641170  -2.710760  -2.789820   5.554270  -2.500660  -0.524454  -4.816230  -0.830422  -0.000000   0.000000  -0.000000
  0.405574  89.607700  -1.433620  -2.254480  -6.674710  -3.933360   0.324468   4.317970   0.588344   0.607008   8.639010   1.157030   1.836970  -0.296326   0.006537   3.018080  -0.597368   0.740354  -5.053580  -0.379279   0.658390 -74.367700  18.929800  -2.150800  -1.120130  -1.534700 -18.637300  18.318900 -14.295400   7.359580  39.066800  35.870400 -69.389000 -32.924400   0.001759   0.001197 -11.459000   0.002854   0.005144 -31.631900   6.046920  -9.704000 -26.301100  -0.003144   0.012479 -18.410800  -0.002007  -0.000930 -28.537700  -1.006460   1.852340 -36.817800  -0.001251   0.000474 -24.520700  -0.000603  -0.000535 -28.283800  -0.998231   1.856820 -34.217500  -0.003046   0.000000 -22.788800   0.000106  -0.001992 -30.953200  -1.083710   1.808260 -46.455500  -0.002462   0.000557 -30.939300   0.000098  -0.002006  11.177900   0.857275   7.116240  69.010000  13.229100  -8.093250  -1.624070  -5.530580  15.187300 -13.551300 -11.814600   2.110490 -39.562900  42.509700  76.039300  38.328300   0.004044  -0.003149  14.275400   0.004915   0.004613  43.948100  11.490500  11.676200  36.921900   0.000606   0.005387  26.875900   0.002586   0.003856  29.689100   2.711840   4.745970  44.702200  -0.001688   0.001356  29.771700   0.001288   0.004559  28.104200   1.687760   3.157290  33.025700   0.003441  -0.000381  21.995100   0.003116  -0.005823  33.769500   0.515848   0.770935  50.659600   0.001519  -0.012950  33.739400   0.005482  -0.006518   1.464160   7.992550   2.512220   1.305410   0.087285   4.438850  -1.345730  -3.044040   1.164380   0.000000   0.000000   0.000000   4.103610   4.685320  -2.704780  -2.791490   5.560430  -2.515640  -0.516702  -4.827100  -0.814063   0.000000   0.000000   0.000000
